<svg xmlns="http://www.w3.org/2000/svg" viewBox="0 0 118.14 200.06"><title>Ativo 6</title><g id="Camada_2" data-name="Camada 2"><g id="Camada_1-2" data-name="Camada 1"><g id="fridge2"><path id="Caminho_12" data-name="Caminho 12" d="M99.17,0H19A19,19,0,0,0,0,19v162.1a19,19,0,0,0,19,19H99.16a19,19,0,0,0,19-19V19A19,19,0,0,0,99.17,0ZM12,19a7,7,0,0,1,7-7H99.16a7,7,0,0,1,7,7V60.63H12ZM106.2,181.07a7,7,0,0,1-7,7H19a7,7,0,0,1-7-7V72.58h94.25Z"/><path id="Caminho_13" data-name="Caminho 13" d="M26.63,18.74a7.15,7.15,0,0,0-7.15,7.15h0V45a7.16,7.16,0,0,0,14.31,0V25.86A7.16,7.16,0,0,0,26.63,18.74Z"/><path id="Caminho_15" data-name="Caminho 15" d="M26.64,96.21a7.15,7.15,0,0,0-7.15,7.15h0v19.09a7.16,7.16,0,0,0,14.31,0V103.33A7.16,7.16,0,0,0,26.64,96.21Z"/></g></g></g></svg>