<svg xmlns="http://www.w3.org/2000/svg" viewBox="0 0 151.51 151.73"><title>Ativo 1</title><g id="Camada_2" data-name="Camada 2"><g id="Camada_1-2" data-name="Camada 1"><path id="chef" d="M151.51,55.29a35.31,35.31,0,0,0-35.4-35.17c-.85,0-1.69,0-2.53.09a45.66,45.66,0,0,0-75.81,0c-.86-.06-1.7-.09-2.53-.09a35.16,35.16,0,0,0-5.06,70v48.61a13.08,13.08,0,0,0,13.06,13h64.81a13.08,13.08,0,0,0,13.1-13V90.1A35.29,35.29,0,0,0,151.51,55.29Zm-43.45,86.42H43.25a3,3,0,0,1-3-3V90.1a34.93,34.93,0,0,0,13.85-5,45.52,45.52,0,0,0,43.15,0,35,35,0,0,0,13.86,5v48.61A3.05,3.05,0,0,1,108.06,141.71Zm8.07-61.26a25.3,25.3,0,0,1-9.72-1.92A45.05,45.05,0,0,0,119.5,57.32a5.06,5.06,0,0,0-9.71-2.67,35.49,35.49,0,0,1-68.28,0,5.06,5.06,0,0,0-9.71,2.67,44.92,44.92,0,0,0,13.1,21.2A25.19,25.19,0,1,1,25.24,32.13a24.94,24.94,0,0,1,9.94-2,26.07,26.07,0,0,1,4.32.37A5.05,5.05,0,0,0,44.74,28a35.54,35.54,0,0,1,61.81,0,5.05,5.05,0,0,0,5.24,2.49,26.07,26.07,0,0,1,4.32-.37,25.16,25.16,0,0,1,0,50.32h0Z"/></g></g></svg>