<svg id="Camada_1" data-name="Camada 1" xmlns="http://www.w3.org/2000/svg" viewBox="0 0 1572.29 2197.87"><title>TrofimonLogo</title><path d="M854.43,106.56a24.65,24.65,0,0,0-2.4-1.76c-11-7.37-17.28-17.3-17.28-27.29s6.2-19.77,17-27.13c6.85-4.64,11.37-12.29,11-20.56A23.41,23.41,0,0,0,839.45,7.13H235.52a23.41,23.41,0,0,0-23.41,23.4V866.16a23.41,23.41,0,0,0,23.41,23.41h32.77V974a23.4,23.4,0,0,0,23.5,24,23.57,23.57,0,0,0,12.09-3.33l48.67-29,48.68,29a23.64,23.64,0,0,0,29.51-4.33A24,24,0,0,0,436.82,974v-84.4H839.41a23.41,23.41,0,0,0,23.41-23.41v-742h0a23.38,23.38,0,0,0-8.39-17.58ZM787.6,53.94a71.32,71.32,0,0,0,0,46.81H258.93V53.94ZM340.41,918.76,315.1,934V889.57H390V934l-25.29-15.28A23.45,23.45,0,0,0,340.41,918.76Zm475.6-76H258.93V147.57H816Z" transform="translate(-212.11 -7.13)"/><text x="-212.11" y="-7.13"/><path d="M568.64,390.88,568,516.78c0,.32,0,.65,0,1q3.13,52.68,8.35,74t27.92,31.94q4.65,2.09,9.45,3.8a14.65,14.65,0,0,1,9.47,16.14L616,688.75a14.74,14.74,0,0,1-19.29,11.59,191.87,191.87,0,0,1-30.1-13.08q-41.55-22.34-57.25-64.58T497.85,517.61h0l-.62-126.73a14.71,14.71,0,0,0-14.71-14.64H396.63a14.71,14.71,0,0,1-13.84-19.7l15.57-43.18a14.7,14.7,0,0,1,13.84-9.73H675.83a14.72,14.72,0,0,1,14.71,14.72v43.18a14.72,14.72,0,0,1-14.71,14.71H583.35A14.71,14.71,0,0,0,568.64,390.88Z" transform="translate(-212.11 -7.13)"/></svg>